<svg width="31" height="30" viewBox="0 0 31 30" fill="none" xmlns="http://www.w3.org/2000/svg">
<path d="M17.2678 15L25.1337 7.13373C25.2531 7.01842 25.3483 6.88049 25.4138 6.72798C25.4794 6.57548 25.5138 6.41146 25.5153 6.24548C25.5167 6.07951 25.4851 5.91491 25.4222 5.76129C25.3594 5.60767 25.2666 5.4681 25.1492 5.35074C25.0318 5.23337 24.8923 5.14055 24.7387 5.0777C24.585 5.01485 24.4204 4.98322 24.2545 4.98467C24.0885 4.98611 23.9245 5.02059 23.772 5.0861C23.6195 5.15161 23.4815 5.24684 23.3662 5.36623L15.5 13.2322L7.63403 5.36623C7.39875 5.13612 7.08222 5.00808 6.75313 5.00989C6.42404 5.0117 6.10894 5.14322 5.87621 5.37591C5.64348 5.6086 5.51191 5.92367 5.51004 6.25277C5.50817 6.58186 5.63615 6.89841 5.86622 7.13373L13.7325 15L5.86622 22.8662C5.74802 22.9818 5.65393 23.1197 5.5894 23.2719C5.52486 23.4242 5.49116 23.5877 5.49025 23.753C5.48934 23.9183 5.52124 24.0822 5.58409 24.2351C5.64695 24.388 5.73951 24.5269 5.85643 24.6438C5.97334 24.7607 6.11229 24.8533 6.26522 24.9161C6.41814 24.9789 6.58201 25.0108 6.74734 25.0099C6.91267 25.0089 7.07616 24.9752 7.22837 24.9106C7.38057 24.8461 7.51845 24.7519 7.63403 24.6337L15.5 16.7678L23.3662 24.6337C23.6103 24.8778 23.9303 25 24.25 25C24.5697 25 24.89 24.8778 25.1337 24.6337C25.3681 24.3993 25.4997 24.0814 25.4997 23.75C25.4997 23.4185 25.3681 23.1006 25.1337 22.8662L17.2678 15Z" fill="red"/>
</svg>
